<?xml version="1.0" encoding="UTF-8" standalone="no"?>
<!-- Created with Inkscape (http://www.inkscape.org/) -->

<svg
   version="1.1"
   id="svg2"
   width="1333.3333"
   height="1333.3333"
   viewBox="0 0 1333.3333 1333.3333"
   sodipodi:docname="Filibuster_LOGO_1.eps"
   xmlns:inkscape="http://www.inkscape.org/namespaces/inkscape"
   xmlns:sodipodi="http://sodipodi.sourceforge.net/DTD/sodipodi-0.dtd"
   xmlns="http://www.w3.org/2000/svg"
   xmlns:svg="http://www.w3.org/2000/svg">
  <defs
     id="defs6" />
  <sodipodi:namedview
     id="namedview4"
     pagecolor="#ffffff"
     bordercolor="#000000"
     borderopacity="0.25"
     inkscape:showpageshadow="2"
     inkscape:pageopacity="0.0"
     inkscape:pagecheckerboard="0"
     inkscape:deskcolor="#d1d1d1" />
  <g
     id="g8"
     inkscape:groupmode="layer"
     inkscape:label="ink_ext_XXXXXX"
     transform="matrix(1.3333333,0,0,-1.3333333,0,1333.3333)">
    <g
       id="g10"
       transform="scale(0.1)">
      <path
         d="M 10000,0 H 0 V 10000 H 10000 V 0"
         style="fill:#0b0f1a;fill-opacity:1;fill-rule:nonzero;stroke:none"
         id="path12" />
      <path
         d="m 4843.13,6657.49 v -238.37 c 0,-20.37 16.51,-36.88 36.87,-36.88 h 238.38 c 20.37,0 36.87,16.51 36.87,36.88 v 275.25 H 4880 c -20.36,0 -36.87,-16.51 -36.87,-36.88"
         style="fill:#5351ac;fill-opacity:1;fill-rule:nonzero;stroke:none"
         id="path14" />
      <path
         d="m 5544.99,7118.13 h -391.22 v -423.76 h 391.22 c 17.98,0 32.54,14.57 32.54,32.54 v 358.68 c 0,17.97 -14.56,32.54 -32.54,32.54"
         style="fill:#5351ac;fill-opacity:1;fill-rule:nonzero;stroke:none"
         id="path16" />
      <path
         d="m 5118.62,7600 h -411.56 c -19.42,0 -35.16,-15.74 -35.16,-35.15 v -411.56 c 0,-19.42 15.74,-35.16 35.16,-35.16 h 446.71 v 446.72 c 0,19.41 -15.73,35.15 -35.15,35.15"
         style="fill:#5351ac;fill-opacity:1;fill-rule:nonzero;stroke:none"
         id="path18" />
      <path
         d="m 6200.25,4041.62 c -0.25,0.86 -0.49,1.72 -0.74,2.58 -4.68,14.03 -9.47,27.93 -14.52,41.71 -0.12,0.37 -0.24,0.61 -0.36,0.98 -4.55,12.31 -9.36,24.49 -14.28,36.55 -1.23,3.19 -2.46,6.27 -3.81,9.47 -5.05,12.18 -10.21,24.24 -15.75,36.29 -0.13,0.37 -0.24,0.74 -0.37,0.99 -1.23,2.7 -2.46,5.16 -3.69,7.75 -3.44,7.38 -6.89,14.88 -10.46,22.27 -8.24,17.47 -17.22,34.57 -26.57,51.67 -0.86,1.6 -1.85,3.2 -2.71,4.8 -7.14,12.79 -14.39,25.59 -21.89,38.13 -2.59,4.19 -5.05,8.37 -7.64,12.44 -6.77,11.19 -13.78,22.14 -20.91,32.96 -3.44,5.3 -7.01,10.71 -10.58,15.88 -6.77,9.96 -13.66,19.81 -20.67,29.53 -4.06,5.66 -8.12,11.31 -12.3,16.85 -7.01,9.36 -14.28,18.7 -21.66,27.93 -4.92,6.4 -9.96,12.68 -15.13,18.83 -6.89,8.36 -13.91,16.73 -21.04,24.97 -5.9,6.77 -11.81,13.41 -17.84,20.06 -4.19,4.55 -8.37,8.97 -12.67,13.52 -9.23,9.97 -18.58,19.82 -28.3,29.42 -2.58,2.7 -5.41,5.41 -8.12,8.11 -11.32,11.19 -22.89,22.15 -34.7,32.97 l -7.38,6.65 c -12.18,10.95 -24.48,21.65 -37.03,32.11 -2.59,2.09 -5.29,4.18 -7.87,6.4 -12.55,10.21 -25.22,20.17 -38.14,29.89 -2.95,2.22 -5.91,4.43 -8.74,6.65 -12.54,9.23 -25.34,18.33 -38.26,27.19 -3.57,2.46 -7.14,4.79 -10.71,7.25 -11.81,8 -23.87,15.76 -36.04,23.26 -4.93,3.07 -9.72,6.03 -14.64,8.98 -9.23,5.66 -18.7,11.07 -28.18,16.48 -8,4.57 -15.99,8.99 -24.11,13.42 -7.02,3.69 -13.9,7.39 -20.92,10.95 -10.94,5.65 -21.9,11.07 -32.98,16.36 -6.02,2.83 -12.05,5.66 -18.2,8.49 -12.18,5.66 -24.61,11.08 -37.16,16.36 -4.67,1.97 -9.47,3.82 -14.26,5.78 -13.91,5.67 -28.06,11.2 -42.33,16.37 -1.11,0.37 -2.21,0.86 -3.32,1.23 -5.42,2.09 -11.2,4.06 -16.61,6.02 -60.65,20.68 -108.14,64.72 -133.37,119.97 -13.53,28.54 -20.92,60.28 -20.92,93.37 v 679.88 c 0,34.82 28.06,64.47 62.87,63.98 15.26,-0.25 29.78,4.8 40.85,13.53 7.87,6.4 14.64,14.77 18.82,24.61 3.58,7.87 5.42,16.61 5.42,25.59 v 306.11 c 0,3.07 -0.24,5.78 -0.5,8.73 -5.41,38.01 -47.12,60.41 -83.16,46.75 -89.08,-33.58 -213.1,-38.14 -328.5,-31.99 -27.31,1.6 -54.01,3.57 -79.72,5.91 -94.25,8.98 -173.97,23.25 -210.63,30.14 -16,3.2 -31.75,-0.12 -45.53,-8.73 -17.96,-11.81 -40.23,-29.9 -40.23,-50.81 v -306.11 c 0,-8.98 1.97,-17.72 5.29,-25.59 4.19,-9.84 10.58,-18.46 18.83,-24.73 10.46,-8.61 23.99,-13.66 38.63,-13.41 35.92,0.49 65.2,-28.3 65.2,-63.98 v -596.09 c 0,-17.22 -0.98,-34.2 -3.44,-50.69 v -0.12 c -17.59,-123.77 -97.81,-231.05 -214.81,-281.26 -2.83,-1.22 -5.66,-2.57 -8.49,-3.81 -284.33,-125.61 -513.29,-353.96 -639.52,-638.04 -0.37,-0.99 -0.86,-1.85 -1.24,-2.83 -3.93,-8.86 -7.74,-17.84 -11.44,-26.82 -0.61,-1.47 -1.23,-2.96 -1.84,-4.43 -3.57,-8.62 -6.89,-17.1 -10.21,-25.72 -0.74,-1.84 -1.36,-3.56 -2.1,-5.41 -3.07,-8.37 -6.27,-16.85 -9.22,-25.34 -0.74,-1.84 -1.36,-3.69 -1.97,-5.54 -2.95,-8.61 -5.91,-17.35 -8.74,-25.96 -0.49,-1.72 -1.1,-3.44 -1.72,-5.17 -2.83,-9.1 -5.66,-18.33 -8.37,-27.43 -0.36,-1.36 -0.73,-2.59 -1.1,-3.82 -2.95,-10.2 -5.79,-20.42 -8.49,-30.75 -0.12,-0.25 -0.12,-0.5 -0.25,-0.74 -14.14,-54.13 -24.73,-109.5 -31.62,-166.22 -0.12,-0.98 -0.24,-1.97 -0.37,-3.08 -1.23,-10.09 -2.21,-20.18 -3.19,-30.38 -0.13,-1.6 -0.38,-3.08 -0.5,-4.68 -0.86,-9.72 -1.59,-19.44 -2.21,-29.16 -0.12,-1.84 -0.25,-3.69 -0.37,-5.41 -0.62,-9.73 -1.11,-19.32 -1.48,-29.04 -0.12,-1.84 -0.12,-3.68 -0.24,-5.41 -0.37,-9.85 -0.62,-19.69 -0.74,-29.65 v -1.23 c 102.48,118.48 295.03,178.4 572.22,178.4 419.79,0 709.41,-90.31 964.82,-170.03 127.7,-39.86 248.28,-77.51 371.56,-98.93 360.11,-62.74 570.37,-52.9 572.46,-52.77 l 18.7,0.99 c 2.46,25.45 3.82,51.17 4.68,77.13 0.5,12.67 0.74,25.35 0.86,38.14 0.13,1.97 0.25,3.82 0.25,5.91 v 7.14 c 0,0 0,0 0,0.11 0,135.59 -21.66,266.13 -61.64,388.42 z M 5069.71,3032.51 c -27.56,-0.86 -54.88,-1.36 -81.7,-1.36 -581.57,0 -1017.97,199.81 -1187.87,291.71 94.61,-347.07 334.65,-634.1 650.59,-791.71 0.74,-0.37 1.48,-0.74 2.22,-1.1 9.59,-4.81 19.19,-9.36 28.91,-13.91 0.86,-0.37 1.72,-0.86 2.58,-1.23 10.34,-4.68 20.67,-9.34 31.13,-13.9 h 0.12 c 31.87,-13.66 64.47,-26.08 97.69,-37.15 1.84,-0.62 3.82,-1.23 5.79,-1.85 8.73,-2.83 17.47,-5.66 26.2,-8.24 2.83,-0.87 5.66,-1.73 8.49,-2.59 8.12,-2.33 16.24,-4.68 24.36,-6.88 3.07,-0.87 6.15,-1.73 9.23,-2.46 8.24,-2.22 16.36,-4.31 24.6,-6.28 2.95,-0.75 5.91,-1.48 8.86,-2.09 9.35,-2.22 18.7,-4.31 28.18,-6.28 1.72,-0.37 3.44,-0.86 5.16,-1.23 11.44,-2.34 22.77,-4.55 34.33,-6.52 1.11,-0.25 2.34,-0.37 3.45,-0.61 10.08,-1.73 20.05,-3.33 30.14,-4.92 3.56,-0.5 7.26,-0.99 10.82,-1.49 7.76,-1.1 15.38,-2.09 23.13,-3.07 4.31,-0.49 8.62,-0.98 12.8,-1.48 7.26,-0.73 14.4,-1.47 21.65,-2.21 4.56,-0.37 8.99,-0.87 13.54,-1.23 7.13,-0.49 14.39,-1.11 21.65,-1.6 4.43,-0.24 8.86,-0.5 13.29,-0.74 7.75,-0.49 15.5,-0.73 23.37,-1.1 3.82,-0.13 7.63,-0.25 11.57,-0.37 11.56,-0.38 23.13,-0.49 34.82,-0.49 0,0 0.12,-0.13 0.24,-0.13 11.82,0 23.63,0.24 35.32,0.62 3.69,0.12 7.38,0.24 11.07,0.37 8.11,0.37 16.11,0.61 24.11,1.1 4.43,0.24 8.73,0.5 13.04,0.86 7.38,0.5 14.76,0.99 22.15,1.6 4.43,0.37 8.85,0.74 13.29,1.23 7.38,0.62 14.76,1.36 22.15,2.22 4.18,0.49 8.36,0.98 12.66,1.47 8,0.99 16,2.09 24,3.21 3.44,0.48 6.76,0.97 10.21,1.47 11.44,1.72 22.75,3.56 34.07,5.54 0.26,0 0.5,0.11 0.75,0.11 10.94,1.98 21.89,4.19 32.85,6.4 3.43,0.74 6.88,1.49 10.2,2.22 7.76,1.73 15.51,3.45 23.14,5.16 4.06,0.99 7.99,1.98 12.06,2.96 7.13,1.72 14.14,3.57 21.15,5.41 4.19,1.11 8.25,2.22 12.3,3.32 7.02,1.98 14.15,4.07 21.17,6.04 3.81,1.23 7.75,2.33 11.57,3.44 7.74,2.46 15.37,4.92 23.12,7.38 2.95,0.99 6.03,1.97 8.99,2.96 10.7,3.56 21.28,7.38 31.86,11.19 0.74,0.24 1.35,0.5 1.97,0.74 9.84,3.69 19.68,7.38 29.28,11.19 3.32,1.36 6.52,2.71 9.85,4.07 7.01,2.83 14.14,5.78 21.16,8.85 3.81,1.6 7.5,3.21 11.19,4.8 6.52,2.96 13.05,5.91 19.56,8.86 3.82,1.72 7.51,3.44 11.32,5.29 6.52,3.07 13.05,6.28 19.56,9.47 3.57,1.73 7.02,3.45 10.46,5.29 7.26,3.57 14.52,7.39 21.66,11.2 2.58,1.35 5.28,2.71 7.87,4.18 9.72,5.3 19.56,10.71 29.16,16.24 0.99,0.49 1.85,1.11 2.83,1.72 8.61,4.93 17.1,9.97 25.59,15.14 2.95,1.85 5.91,3.69 8.86,5.54 6.39,4.05 12.79,8.11 19.19,12.18 3.33,2.21 6.76,4.43 10.09,6.64 5.9,3.93 11.81,7.88 17.72,11.93 3.32,2.34 6.64,4.68 9.96,6.89 6.03,4.31 11.93,8.49 17.97,12.92 2.95,2.09 5.9,4.31 8.97,6.52 6.77,5.05 13.42,10.09 20.19,15.26 1.96,1.59 4.05,3.08 6.02,4.67 8.73,6.89 17.47,13.91 26.09,21.04 0.86,0.62 1.6,1.35 2.46,2.09 7.62,6.27 15.12,12.68 22.63,19.19 2.47,2.22 4.93,4.44 7.39,6.53 5.78,5.16 11.56,10.33 17.34,15.62 2.71,2.59 5.41,5.05 8.24,7.63 5.42,5.16 10.71,10.21 16.12,15.38 2.71,2.58 5.29,5.17 8,7.87 5.53,5.42 10.95,10.95 16.36,16.49 2.34,2.34 4.55,4.67 6.9,7.02 6.39,6.64 12.79,13.4 19.06,20.29 1.11,1.23 2.34,2.46 3.45,3.69 7.62,8.5 15.25,16.98 22.63,25.6 0.37,0.24 0.62,0.61 0.86,0.97 7.02,8 13.79,16.13 20.55,24.37 1.6,2.09 3.33,4.18 4.92,6.28 5.42,6.51 10.7,13.16 15.88,19.8 0.73,1.11 1.59,2.09 2.46,3.2 0.24,0.37 0.62,0.86 0.98,1.35 94.62,123.16 166.83,264.4 210.51,417.57 -159.09,-85.38 -548.24,-256.15 -1143.83,-275.34"
         style="fill:#5351ac;fill-opacity:1;fill-rule:nonzero;stroke:none"
         id="path20" />
      <path
         d="m 4545.47,5612.33 v -476.99 c 0,-5.17 -0.12,-10.09 -0.49,-14.77 -0.25,-3.32 -0.62,-6.52 -0.99,-9.35 l -0.62,-3.81 c -9.59,-60.41 -48.47,-110.61 -104.45,-134.6 l -11.07,-5.05 c -202.64,-89.68 -379.55,-223.42 -519.2,-389.76 -109.62,112.7 -177.04,266.74 -177.04,436.39 0,345.97 280.39,626.48 626.36,626.48 65.33,0 128.32,-9.96 187.5,-28.54"
         style="fill:#5351ac;fill-opacity:1;fill-rule:nonzero;stroke:none"
         id="path22" />
      <path
         d="m 6286.49,5014.39 c 0,-169.78 -67.53,-323.81 -177.28,-436.51 -4.92,5.78 -9.84,11.56 -14.64,17.23 -6.77,7.74 -13.66,15.5 -20.55,23.12 -4.06,4.44 -8.12,8.74 -12.18,13.17 l -2.21,2.33 c -10.7,11.45 -21.42,22.65 -32.36,33.71 -2.34,2.35 -9.48,9.36 -9.48,9.36 -13.65,13.41 -26.7,25.84 -39.49,37.4 l -8.86,8 c -14.02,12.66 -28.3,24.97 -42.56,36.9 l -8.75,7.14 c -14.26,11.69 -29.03,23.25 -43.91,34.45 l -9.97,7.5 c -14.15,10.46 -28.92,21.04 -43.8,31.25 0,0 -8.61,5.78 -12.31,8.37 -13.28,8.86 -27.18,17.84 -42.07,27.07 -5.42,3.32 -10.71,6.64 -16.12,9.84 -10.7,6.52 -21.41,12.8 -32.24,18.95 -9.22,5.17 -18.45,10.33 -27.92,15.37 -7.88,4.31 -15.87,8.5 -23.87,12.55 -12.55,6.53 -25.1,12.68 -37.89,18.83 -6.89,3.32 -13.91,6.52 -20.79,9.72 -14.15,6.52 -28.3,12.8 -42.7,18.7 -5.54,2.34 -11.07,4.55 -16.24,6.77 -16.24,6.52 -31.49,12.42 -46.87,18.08 -1.11,0.37 -2.22,0.74 -3.32,1.23 -6.16,2.34 -12.8,4.68 -19.08,6.89 l -2.82,0.99 c -11.33,3.81 -20.55,11.81 -25.11,22.02 l -0.73,1.6 c -1.73,3.44 -2.7,7.26 -3.08,11.07 -0.24,1.36 -0.24,2.71 -0.24,4.06 v 552.17 c 66.44,24.12 138.16,37.15 212.97,37.15 345.97,0 626.47,-280.51 626.47,-626.48"
         style="fill:#5351ac;fill-opacity:1;fill-rule:nonzero;stroke:none"
         id="path24" />
      <path
         d="m 5868.93,3360.26 c -189.97,-66.3 -460.88,-132.25 -805.13,-143.33 -600.64,-19.31 -1055.98,202.27 -1195.63,279.53 4.19,14.64 12.19,32.24 27.69,49.96 37.27,42.81 142.96,114.54 432.7,114.54 391.62,0 666.96,-85.88 909.83,-161.66 133.61,-41.71 259.84,-81.09 394.93,-104.58 87.11,-15.14 165.72,-26.33 235.61,-34.46"
         style="fill:#ffffff;fill-opacity:1;fill-rule:nonzero;stroke:none"
         id="path26" />
    </g>
  </g>
</svg>
